<svg width="14" height="14" viewBox="0 0 14 14" fill="none" xmlns="http://www.w3.org/2000/svg">
<g clip-path="url(#clip0_167_4624)">
<path fill-rule="evenodd" clip-rule="evenodd" d="M9.33325 0.4375C9.19092 0.4375 9.05529 0.438861 8.92638 0.441583C7.63517 0.46725 6.64904 1.31104 6.35854 2.47917C5.92279 2.47994 5.51835 2.48549 5.14521 2.49579C3.94121 2.52875 2.89296 2.95196 2.0935 3.64583H2.08329C1.51688 3.64583 1.02075 3.16867 1.02075 2.61421C1.02075 2.05975 1.51688 1.58258 2.08329 1.58258H2.09175C2.68792 1.5855 2.77075 1.87308 2.77075 1.94629C2.77075 2.06232 2.81685 2.1736 2.89889 2.25565C2.98094 2.3377 3.09222 2.38379 3.20825 2.38379C3.32428 2.38379 3.43556 2.3377 3.51761 2.25565C3.59966 2.1736 3.64575 2.06232 3.64575 1.94629C3.64575 1.21858 2.97929 0.707583 2.08329 0.707583H2.0725C1.05838 0.713417 0.145752 1.54992 0.145752 2.61421C0.145752 3.43554 0.689127 4.12096 1.40313 4.39396C0.792377 5.22258 0.442377 6.26937 0.43771 7.42437C0.437269 7.53035 0.437269 7.63632 0.43771 7.74229C0.442377 8.88067 0.781585 9.91871 1.38446 10.7476C1.24999 11.0468 1.1197 11.3478 0.993627 11.6506C0.779835 12.1634 0.916335 12.7732 1.37979 13.1235C1.50638 13.2192 1.65104 13.3219 1.78171 13.3968C1.915 13.4732 2.08154 13.5476 2.23175 13.6095C2.76142 13.8282 3.34942 13.6445 3.68571 13.211C3.82746 13.0282 3.99896 12.8036 4.18213 12.556C4.49149 12.6232 4.81252 12.6615 5.14521 12.6709C5.53546 12.6817 5.95838 12.6875 6.41659 12.6875C6.87479 12.6875 7.29771 12.6817 7.68796 12.6709C8.01185 12.6624 8.33425 12.6239 8.65104 12.556C8.83421 12.8039 9.00571 13.0285 9.14746 13.211C9.48375 13.6445 10.0718 13.8279 10.6014 13.6095C10.7557 13.5477 10.9061 13.4766 11.0518 13.3965C11.1824 13.3219 11.3268 13.2192 11.4534 13.1235C11.9171 12.7732 12.0533 12.1634 11.8398 11.6506C11.7348 11.3998 11.6007 11.0854 11.4487 10.7476C11.7337 10.3544 11.9579 9.92047 12.1137 9.4605C12.2043 9.46711 12.2936 9.47207 12.3815 9.47537C13.0027 9.49754 13.4793 9.02329 13.5236 8.43587C13.5452 8.15267 13.5624 7.77467 13.5624 7.29167C13.5624 6.80867 13.5449 6.43067 13.5236 6.14746C13.4793 5.55975 13.0027 5.08579 12.3815 5.10796C12.2199 5.11379 12.0525 5.12575 11.8824 5.14296C11.479 4.31171 10.8534 3.62542 10.0624 3.15933C10.0595 2.28725 9.986 1.68962 9.90784 1.29967C9.87893 1.14934 9.84094 1.0009 9.79409 0.855167C9.77527 0.798482 9.75356 0.742798 9.72904 0.688333L9.72671 0.683375L9.72554 0.681333L9.72496 0.680167L9.72467 0.679292C9.68832 0.606614 9.63244 0.545497 9.56331 0.50279C9.49418 0.460084 9.41451 0.437476 9.33325 0.4375ZM9.04159 4.73958C9.32334 4.73958 9.552 4.96825 9.552 5.25V5.54167C9.552 5.67704 9.49823 5.80686 9.4025 5.90259C9.30678 5.99831 9.17696 6.05208 9.04159 6.05208C8.90621 6.05208 8.77639 5.99831 8.68067 5.90259C8.58495 5.80686 8.53117 5.67704 8.53117 5.54167V5.25C8.53117 4.96825 8.75984 4.73958 9.04159 4.73958ZM5.67371 4.44792C5.78974 4.44649 5.90045 4.39902 5.98149 4.31596C6.06252 4.2329 6.10725 4.12105 6.10581 4.00502C6.10438 3.88899 6.05692 3.77828 5.97386 3.69724C5.8908 3.61621 5.77895 3.57149 5.66292 3.57292C5.51359 3.57486 5.37018 3.57758 5.23271 3.58108C4.26788 3.60587 3.42671 3.96958 2.82529 4.57421C2.78361 4.61467 2.75041 4.66302 2.72761 4.71645C2.70482 4.76988 2.69289 4.82731 2.69253 4.8854C2.69217 4.94348 2.70337 5.00106 2.7255 5.05477C2.74762 5.10848 2.78022 5.15724 2.82139 5.19822C2.86256 5.23919 2.91148 5.27156 2.96529 5.29343C3.01911 5.31531 3.07674 5.32624 3.13482 5.3256C3.1929 5.32497 3.25028 5.31277 3.3036 5.28972C3.35692 5.26668 3.40512 5.23324 3.44538 5.19137C3.8785 4.75592 4.50121 4.47533 5.25546 4.45579C5.38865 4.45229 5.52807 4.44967 5.67371 4.44792Z" fill="white"/>
</g>
<defs>
<clipPath id="clip0_167_4624">
<rect width="14" height="14" fill="white"/>
</clipPath>
</defs>
</svg>
