<svg width="14" height="14" viewBox="0 0 14 14" fill="none" xmlns="http://www.w3.org/2000/svg">
<path fill-rule="evenodd" clip-rule="evenodd" d="M9.41301 2.75945L10.4805 3.82695C12.0491 5.39611 12.8331 6.18011 12.8331 7.15428C12.8331 8.12903 12.0491 8.91303 10.4805 10.4816C8.91134 12.0508 8.12734 12.8348 7.15259 12.8348C6.17843 12.8348 5.39384 12.0508 3.82526 10.4822L2.75776 9.41469C1.85651 8.51286 1.40559 8.06253 1.23818 7.47744C1.07018 6.89236 1.21368 6.27111 1.50068 5.0292L1.66576 4.31286C1.90668 3.26753 2.02743 2.74486 2.38501 2.3867C2.74259 2.02853 3.26584 1.90836 4.31118 1.66745L5.02751 1.50178C6.27001 1.21536 6.89068 1.07186 7.47576 1.23928C8.06084 1.40728 8.51176 1.8582 9.41301 2.75945ZM6.50159 8.35944C6.10901 7.96744 6.11193 7.40394 6.34701 6.9577C6.28881 6.87363 6.26189 6.77184 6.27093 6.67C6.27996 6.56816 6.32438 6.4727 6.39647 6.40019C6.46855 6.32769 6.56376 6.28272 6.66555 6.2731C6.76734 6.26348 6.86928 6.28981 6.95368 6.34753C7.15201 6.24253 7.36959 6.18653 7.58659 6.18886C7.70262 6.18994 7.81347 6.23708 7.89476 6.31989C7.97604 6.4027 8.02109 6.51441 8.02001 6.63045C8.01893 6.74648 7.97179 6.85733 7.88898 6.93861C7.80617 7.01989 7.69446 7.06494 7.57843 7.06386C7.44335 7.06885 7.3157 7.12691 7.22318 7.22544C6.99743 7.45119 7.05634 7.67753 7.11993 7.74111C7.18409 7.80469 7.40984 7.86361 7.63559 7.63786C8.09293 7.18053 8.88276 7.02886 9.38851 7.53461C9.78109 7.92719 9.77818 8.49069 9.54309 8.93694C9.60092 9.02102 9.62754 9.12268 9.61835 9.22431C9.60915 9.32594 9.56471 9.42116 9.49273 9.49349C9.42074 9.56583 9.32573 9.61072 9.22415 9.6204C9.12256 9.63009 9.02078 9.60396 8.93643 9.54653C8.67466 9.69015 8.37101 9.73801 8.07776 9.68186C7.96405 9.6585 7.86427 9.59092 7.80039 9.494C7.7365 9.39707 7.71373 9.27874 7.73709 9.16503C7.76045 9.05132 7.82803 8.95154 7.92495 8.88766C8.02188 8.82377 8.14021 8.801 8.25393 8.82436C8.35718 8.84594 8.52401 8.81211 8.66693 8.66919C8.89268 8.44286 8.83376 8.21711 8.77018 8.15353C8.70601 8.08994 8.48026 8.03103 8.25451 8.25678C7.79718 8.71411 7.00734 8.86578 6.50159 8.35944ZM5.84476 6.00569C5.95308 5.89734 6.03899 5.76871 6.0976 5.62715C6.15621 5.48559 6.18636 5.33387 6.18633 5.18066C6.1863 5.02744 6.1561 4.87574 6.09744 4.7342C6.03879 4.59266 5.95282 4.46406 5.84447 4.35574C5.73611 4.24742 5.60748 4.1615 5.46592 4.1029C5.32436 4.04429 5.17264 4.01414 5.01943 4.01417C4.86622 4.01419 4.71451 4.0444 4.57297 4.10305C4.43143 4.16171 4.30283 4.24767 4.19451 4.35603C3.97575 4.57487 3.85288 4.87164 3.85294 5.18107C3.85299 5.4905 3.97596 5.78723 4.1948 6.00599C4.41364 6.22475 4.71041 6.34761 5.01984 6.34756C5.32927 6.3475 5.626 6.22453 5.84476 6.00569Z" fill="white"/>
</svg>
